<svg width="207" height="265" viewBox="0 0 207 265" fill="none" xmlns="http://www.w3.org/2000/svg">
<path d="M103.148 4.84087V29.3422C85.1218 38.7941 75.9669 80.611 75.9669 80.611C68.8779 54.0824 58.0573 41.1506 50.8264 35.1464C65.3077 17.2433 83.4561 4.84087 103.148 4.84087Z" fill="#204438"/>
<path d="M155.469 35.1464C148.238 41.1506 137.411 54.0824 130.322 80.611C130.322 80.611 121.167 38.7941 103.148 29.3422V4.84087C122.833 4.84087 140.982 17.2433 155.469 35.1464Z" fill="#346D5A"/>
<path d="M174.941 86.3119C172.707 87.4934 170.37 88.8686 167.987 90.4632C157.399 97.5328 145.991 108.896 139.212 126.87C139.096 126.947 138.98 127.031 138.863 127.109C137.585 123.087 125.564 86.9962 103.148 78.474C90.6677 83.2194 81.4095 96.4998 75.4375 108.037C70.6728 117.231 67.9934 125.32 67.4253 127.109C67.3091 127.031 67.1929 126.947 67.0767 126.87C60.3041 108.896 48.896 97.5328 38.3078 90.4632C35.9254 88.8686 33.5883 87.4934 31.3544 86.3119C21.3344 58.4275 43.2597 30.3559 43.2597 30.3559C43.2597 30.3559 46.3587 31.4276 50.8264 35.1464C58.0573 41.1506 68.8779 54.0825 75.9669 80.6111C75.9669 80.6111 85.1218 38.7941 103.148 29.3422C121.167 38.7941 130.322 80.6111 130.322 80.6111C137.411 54.0825 148.238 41.1506 155.469 35.1464C159.936 31.4276 163.035 30.3559 163.035 30.3559C163.035 30.3559 184.961 58.4281 174.941 86.3119Z" fill="#346D5A"/>
<path d="M188.492 113.965C188.492 113.965 188.492 113.965 188.492 113.971C187.362 117.98 185.968 122.151 184.244 126.373C170.473 132.281 151.821 144.244 142.162 167.532C142.162 167.532 129.011 128.846 103.148 120.104C92.8434 123.584 84.5601 131.816 78.3298 140.461C68.8908 153.522 64.1326 167.532 64.1326 167.532C54.4741 144.238 35.8156 132.274 22.0445 126.367C20.3272 122.151 18.9326 117.987 17.8028 113.984V113.977C12.4183 94.8799 13.0575 79.4431 13.0575 79.4431C13.0575 79.4431 21.1277 80.8893 31.3544 86.3125C33.5882 87.494 35.9254 88.8692 38.3077 90.4639C48.8959 97.5334 60.3041 108.896 67.0766 126.87C67.1606 127.071 67.2316 127.277 67.3091 127.477C67.3091 127.477 67.3478 127.348 67.4253 127.109C67.8514 125.76 69.4848 120.815 72.3126 114.513C77.9231 102.001 88.2337 84.1432 103.148 78.4747C125.564 86.9969 137.585 123.087 138.863 127.109C138.941 127.348 138.98 127.477 138.98 127.477C139.057 127.277 139.128 127.071 139.212 126.87C145.991 108.896 157.399 97.5334 167.987 90.4639C170.37 88.8692 172.707 87.494 174.941 86.3125C185.161 80.8893 193.231 79.4431 193.231 79.4431C193.231 79.4431 193.871 94.8793 188.492 113.965Z" fill="#346D5A"/>
<path d="M124.453 219.052V259.158H81.842V219.052C95.8785 222.041 110.411 222.041 124.453 219.052Z" fill="#346D5A"/>
<path d="M103.149 219.052V259.158H81.842V219.052C88.8606 222.041 96.1277 222.041 103.149 219.052Z" fill="#204438"/>
<path d="M145.41 212.156C138.644 215.23 131.613 217.528 124.453 219.052C117.545 220.517 110.527 221.266 103.503 221.292C96.2394 221.318 88.9761 220.569 81.842 219.052C74.6821 217.528 67.6513 215.23 60.8851 212.156C2.06899 185.408 5.05822 121.046 5.05822 121.046C5.05822 121.046 12.3408 122.208 22.0445 126.366C35.8156 132.274 54.4741 144.237 64.1326 167.531C64.1326 167.531 69.3363 152.217 79.6405 138.678C85.7093 130.705 93.5536 123.345 103.148 120.104C129.011 128.845 142.162 167.531 142.162 167.531C151.821 144.244 170.473 132.28 184.244 126.373C193.948 122.208 201.23 121.046 201.23 121.046C201.23 121.046 204.227 185.408 145.41 212.156Z" fill="#346D5A"/>
<path d="M177.53 72.7409C177.53 72.7409 177.53 72.7478 177.53 72.7546" stroke="#121712" stroke-width="18.7816" stroke-miterlimit="10" stroke-linejoin="round"/>
<path d="M28.7654 72.735V72.728" stroke="#121712" stroke-width="18.7816" stroke-miterlimit="10" stroke-linejoin="round"/>
<path d="M103.503 221.292C96.24 221.318 88.9768 220.569 81.8427 219.052C74.6827 217.528 67.6519 215.23 60.8858 212.156C2.06963 185.408 5.05887 121.046 5.05887 121.046C5.05887 121.046 12.3415 122.208 22.0452 126.366C35.8163 132.274 54.4748 144.237 64.1333 167.531C64.1333 167.531 69.337 152.217 79.6411 138.678L80.5966 141.351C80.5966 141.351 66.0701 190.735 102.864 220.756C103.084 220.937 103.296 221.112 103.503 221.292Z" fill="#204438"/>
<path d="M78.3305 140.461C68.8915 153.522 64.1333 167.532 64.1333 167.532C54.4748 144.238 35.8163 132.274 22.0452 126.367C20.3278 122.151 18.9333 117.987 17.8034 113.984V113.977C12.4189 94.8799 13.0581 79.4431 13.0581 79.4431C13.0581 79.4431 21.1284 80.8893 31.355 86.3125C33.5889 87.494 35.926 88.8692 38.3084 90.4639C48.8966 97.5334 60.3047 108.896 67.0773 126.87C67.1612 127.071 67.2322 127.277 67.3097 127.477C67.3097 127.477 67.3484 127.348 67.4259 127.109C67.852 125.76 69.4855 120.815 72.3133 114.513L72.8492 115.204C72.8492 115.204 70.9123 129.731 77.6913 138.446C78.078 138.937 78.2846 139.621 78.3305 140.461Z" fill="#204438"/>
<path d="M167.589 181.923C166.517 181.923 165.438 181.569 164.541 180.841C162.464 179.156 162.147 176.107 163.831 174.03C169.142 167.485 173.378 159.78 176.422 151.129C177.462 148.173 178.366 145.084 179.108 141.945C179.722 139.342 182.33 137.728 184.933 138.346C187.535 138.961 189.147 141.569 188.532 144.172C187.711 147.643 186.711 151.065 185.558 154.343C182.143 164.045 177.364 172.721 171.352 180.131C170.395 181.312 168.998 181.923 167.589 181.923Z" fill="#FFFFF0"/>
<path d="M75.4381 108.037C70.6734 117.231 67.9941 125.32 67.4259 127.109C67.3097 127.031 67.1935 126.947 67.0773 126.87C60.3047 108.896 48.8966 97.5328 38.3084 90.4632C35.9261 88.8685 33.5889 87.4934 31.3551 86.3119C21.335 58.4275 43.2603 30.3559 43.2603 30.3559C43.2603 30.3559 46.4239 82.9095 74.786 107.456C75.0114 107.65 75.2244 107.844 75.4381 108.037Z" fill="#204438"/>
<path d="M173.733 122.793C173.054 122.793 172.364 122.649 171.706 122.346C169.278 121.225 168.218 118.349 169.339 115.92C171.256 111.767 173.46 101.643 174.147 98.0919C174.655 95.4662 177.195 93.7475 179.82 94.2582C182.446 94.7663 184.163 97.3068 183.654 99.9319C183.378 101.357 180.88 114.023 178.131 119.98C177.315 121.749 175.563 122.793 173.733 122.793Z" fill="#FFFFF0"/>
<path d="M164.269 82.3329C164.223 82.3329 164.176 82.3323 164.128 82.331C161.455 82.2548 159.35 80.0261 159.426 77.3526C159.551 72.974 159.003 68.3591 157.796 63.6389C157.133 61.0481 158.696 58.4107 161.286 57.7483C163.881 57.0827 166.515 58.6496 167.177 61.2392C168.608 66.8335 169.258 72.3477 169.107 77.6289C169.032 80.2553 166.879 82.3329 164.269 82.3329Z" fill="#FFFFF0"/>
<path d="M134.141 39.2913C132.693 39.2913 131.26 38.6443 130.306 37.4099C123.892 29.1092 115.067 25.1508 114.979 25.1115C112.537 24.0339 111.421 21.1803 112.492 18.7359C113.563 16.291 116.403 15.1708 118.852 16.2355C119.302 16.4317 129.984 21.1538 137.969 31.4883C139.605 33.6046 139.215 36.6455 137.098 38.2809C136.217 38.962 135.175 39.2913 134.141 39.2913Z" fill="#FFFFF0"/>
<path d="M157.896 54.7526C160.57 54.7526 162.738 52.5847 162.738 49.9104C162.738 47.2362 160.57 45.0683 157.896 45.0683C155.222 45.0683 153.054 47.2362 153.054 49.9104C153.054 52.5847 155.222 54.7526 157.896 54.7526Z" fill="#FFFFF0"/>
<path d="M206.069 120.821C206.005 119.445 205.357 118.161 204.289 117.291C203.221 116.421 201.833 116.048 200.471 116.264C200.228 116.302 197.089 116.818 192.267 118.284C198.72 97.414 198.105 80.0791 198.07 79.243C198.013 77.8459 197.353 76.5417 196.262 75.6669C195.171 74.7921 193.753 74.4318 192.38 74.6771C192.082 74.7301 187.975 75.49 181.964 77.7974C185.471 51.6175 167.705 28.4693 166.852 27.3769C165.579 25.7468 163.409 25.1057 161.456 25.7803C161.095 25.9043 159.137 26.6332 156.242 28.5391C139.979 9.84896 121.698 0 103.148 0C84.5866 0 66.3013 9.85348 50.0432 28.5507C47.0817 26.5919 45.11 25.8733 44.8408 25.7803C42.8891 25.1069 40.7179 25.7455 39.444 27.3769C38.5912 28.4693 20.8237 51.6194 24.332 77.8C18.3161 75.4906 14.208 74.7307 13.9103 74.6778C12.5371 74.4324 11.118 74.7927 10.0276 75.6675C8.93712 76.5423 8.27729 77.8465 8.21983 79.2436C8.18497 80.0797 7.56905 97.414 14.0253 118.284C9.20247 116.819 6.06346 116.303 5.8207 116.264C4.45715 116.045 3.07035 116.421 2.0025 117.291C0.934637 118.162 0.287078 119.445 0.222516 120.822C0.190235 121.516 -0.490248 138.059 6.33075 158.13C12.6636 176.765 26.9209 202.031 58.8792 216.562C64.764 219.238 70.8303 221.346 77.0005 222.903V259.16C77.0005 261.835 79.1679 264.003 81.8427 264.003H124.454C127.129 264.003 129.296 261.835 129.296 259.16V222.901C135.465 221.344 141.531 219.237 147.413 216.562C179.372 202.031 193.629 176.765 199.962 158.13C206.781 138.058 206.101 121.516 206.069 120.821ZM148.771 34.7119C148.335 35.1477 147.894 35.6022 147.448 36.0786C140.739 43.2392 135.111 52.6027 130.633 64.0289C129.859 61.7214 128.982 59.2713 128.003 56.7618C122.202 41.8983 115.479 31.7988 107.99 26.6442V9.96776C118.764 11.2093 133.276 16.965 148.771 34.7119ZM98.3054 9.96776V26.6435C90.8142 31.7982 84.0888 41.8983 78.2866 56.7618C77.304 59.2797 76.4246 61.7376 75.6486 64.0515C69.9761 49.6367 63.2365 40.4689 57.5053 34.7319C73.0022 16.9689 87.5241 11.2093 98.3054 9.96776ZM37.9449 49.9272C40.2098 44.2445 42.8994 39.5986 44.7704 36.6829C50.6359 40.6128 63.3553 52.183 71.2893 81.8623C71.8562 83.9844 73.7782 85.4539 75.9656 85.4539C76.003 85.4539 76.0392 85.4532 76.076 85.4526C78.3085 85.4022 80.2176 83.8308 80.6967 81.6492C82.9757 71.2676 91.23 43.9514 103.146 35.0605C115.059 43.9514 123.312 71.2676 125.591 81.6473C126.068 83.8301 127.977 85.4016 130.211 85.4532C132.436 85.4971 134.422 84.0206 134.999 81.8623C142.943 52.1449 155.689 40.5825 161.521 36.6765C166.404 44.2819 176.872 63.7216 170.946 82.976C169.106 84.0077 167.216 85.1543 165.298 86.4378C154.259 93.8076 145.577 103.321 139.385 114.808C137.767 111.022 135.686 106.604 133.15 102.103C124.87 87.4082 115.354 77.9356 104.867 73.9489C103.758 73.5279 102.534 73.5279 101.426 73.9489C90.9356 77.9362 81.4185 87.4088 73.1377 102.103C70.6011 106.604 68.5209 111.02 66.903 114.805C60.7147 103.32 52.035 93.8082 41 86.4397C39.0818 85.1562 37.1902 84.0096 35.3508 82.9779C32.288 73.0592 33.1538 61.9513 37.9449 49.9272ZM18.0223 85.8296C22.4326 87.3094 28.8662 89.9726 35.62 94.4913C48.1051 102.827 57.1644 114.296 62.5457 128.578C62.567 128.634 62.5883 128.689 62.6122 128.744C62.6393 128.81 62.6632 128.876 62.6877 128.943L62.7936 129.226C63.5399 131.154 65.4335 132.395 67.4963 132.313C69.5629 132.234 71.3526 130.847 71.9485 128.867L72.0408 128.578C76.3297 115.087 87.5719 91.0288 103.149 83.732C118.721 91.0288 129.962 115.087 134.259 128.605L134.34 128.86C134.931 130.845 136.719 132.235 138.788 132.317C138.854 132.32 138.918 132.321 138.983 132.321C140.976 132.321 142.774 131.097 143.498 129.226L143.603 128.943C143.628 128.876 143.652 128.81 143.679 128.744C143.702 128.69 143.724 128.635 143.745 128.579C149.133 114.296 158.194 102.826 170.683 94.4881C177.435 89.9681 183.87 87.3049 188.277 85.827C187.865 93.5971 186.277 107.742 180.479 122.738C178.905 123.453 177.282 124.24 175.626 125.108C161.427 132.546 150.16 143.079 142.564 155.921C140.989 152.58 138.969 148.665 136.497 144.586C127.236 129.299 116.538 119.519 104.699 115.517C103.694 115.178 102.603 115.178 101.598 115.517C89.7586 119.519 79.0607 129.299 69.7992 144.586C67.3284 148.663 65.307 152.58 63.7323 155.921C56.1366 143.079 44.8698 132.546 30.6713 125.108C29.0147 124.24 27.3916 123.453 25.8182 122.738C20.0373 107.792 18.4426 93.6171 18.0223 85.8296ZM119.611 254.317H86.6842V224.877C92.1377 225.726 97.641 226.156 103.146 226.156C108.65 226.156 114.155 225.725 119.611 224.875V254.317ZM190.679 155.342C182.327 179.648 166.422 197.279 143.404 207.746C117.82 219.38 88.4726 219.38 62.8872 207.746C39.8695 197.279 23.964 179.648 15.6122 155.342C11.65 143.814 10.4066 133.407 10.0321 127.211C21.6643 130.568 47.9146 141.062 59.6572 169.382C60.4287 171.245 62.2848 172.446 64.2882 172.367C66.3026 172.301 68.0657 170.995 68.7139 169.086C68.7456 168.994 71.9027 159.798 78.0787 149.604C83.3689 140.872 91.9311 129.758 103.146 125.264C125.421 134.164 137.455 168.733 137.575 169.086C138.224 170.995 139.987 172.301 142.001 172.367C144.01 172.446 145.861 171.245 146.632 169.383C158.329 141.173 184.614 130.618 196.256 127.228C195.881 133.429 194.637 143.825 190.679 155.342Z" fill="#121712"/>
</svg>
